<svg version="1.1" xmlns="http://www.w3.org/2000/svg" viewBox="0 0 929.8010738080357 211.20273952962202" width="1859.6021476160713" height="422.40547905924404">
  <!-- svg-source:excalidraw -->
  
  <defs>
    <style class="style-fonts">
      @font-face {
        font-family: "Virgil";
        src: url("https://excalidraw.com/Virgil.woff2");
      }
      @font-face {
        font-family: "Cascadia";
        src: url("https://excalidraw.com/Cascadia.woff2");
      }
    </style>
  </defs>
  <rect x="0" y="0" width="929.8010738080357" height="211.20273952962202" fill="#ffffff"></rect><g stroke-linecap="round" transform="translate(10 14.257562849207943) rotate(0 112.1797320499411 93.47258834020704)"><path d="M32 0 M32 0 C82.19 -1.9, 132.34 -1.75, 192.36 0 M32 0 C90.29 0.41, 148.24 1.24, 192.36 0 M192.36 0 C212.36 -0.57, 223.36 10.77, 224.36 32 M192.36 0 C215.91 -0.22, 224.24 11.64, 224.36 32 M224.36 32 C225.34 68.39, 223.99 103.92, 224.36 154.95 M224.36 32 C224.87 57.76, 223.67 83.46, 224.36 154.95 M224.36 154.95 C225.23 176.99, 214.38 186.41, 192.36 186.95 M224.36 154.95 C224.17 177.25, 214.55 185.04, 192.36 186.95 M192.36 186.95 C137.05 185.85, 81.87 187.75, 32 186.95 M192.36 186.95 C129.15 186.01, 66.26 185.04, 32 186.95 M32 186.95 C9.89 188.43, -1.26 177.4, 0 154.95 M32 186.95 C8.93 189.1, 2.04 175.81, 0 154.95 M0 154.95 C-0.47 121.1, -1.5 87.21, 0 32 M0 154.95 C-0.38 124.7, -1.03 94.6, 0 32 M0 32 C-0.65 10.54, 9.35 -0.99, 32 0 M0 32 C-1.24 9.55, 9.65 1.43, 32 0" stroke="#000000" stroke-width="1" fill="none"></path></g><g transform="translate(25.10980864906196 82.73015118941498) rotate(0 97.0699234008789 25)"><text x="97.0699234008789" y="0" font-family="Virgil, Segoe UI Emoji" font-size="20px" fill="#000000" text-anchor="middle" style="white-space: pre;" direction="ltr" dominant-baseline="text-before-edge">Upload function to </text><text x="97.0699234008789" y="25" font-family="Virgil, Segoe UI Emoji" font-size="20px" fill="#000000" text-anchor="middle" style="white-space: pre;" direction="ltr" dominant-baseline="text-before-edge">cloud provider cloud</text></g><g stroke-linecap="round" transform="translate(374.9120674988567 12.095353890205217) rotate(0 112.1797320499411 93.47258834020704)"><path d="M32 0 M32 0 C73.78 0.04, 111.59 2.42, 192.36 0 M32 0 C88.54 1.4, 143.96 0.59, 192.36 0 M192.36 0 C215.11 -0.52, 223.67 8.98, 224.36 32 M192.36 0 C212 0.2, 225.42 8.63, 224.36 32 M224.36 32 C223.68 56.46, 222.1 83.44, 224.36 154.95 M224.36 32 C222.67 62.02, 222.6 92.17, 224.36 154.95 M224.36 154.95 C224.15 177.77, 214.96 185.15, 192.36 186.95 M224.36 154.95 C225.05 176.86, 213.85 184.94, 192.36 186.95 M192.36 186.95 C136.75 187.83, 84.35 186.94, 32 186.95 M192.36 186.95 C139.78 187.04, 88.34 187.83, 32 186.95 M32 186.95 C11.41 185.8, 1.28 175.54, 0 154.95 M32 186.95 C10.54 186.02, -2.02 176.69, 0 154.95 M0 154.95 C-1.36 110.31, -1.97 64.05, 0 32 M0 154.95 C-1.05 124.23, -0.93 94.23, 0 32 M0 32 C-1.68 8.72, 10.47 1.23, 32 0 M0 32 C-1.34 10.28, 9.89 -2.28, 32 0" stroke="#000000" stroke-width="1" fill="none"></path></g><g transform="translate(408.35187034957926 80.56794223041226) rotate(0 78.73992919921875 25)"><text x="78.73992919921875" y="0" font-family="Virgil, Segoe UI Emoji" font-size="20px" fill="#000000" text-anchor="middle" style="white-space: pre;" direction="ltr" dominant-baseline="text-before-edge">Define function </text><text x="78.73992919921875" y="25" font-family="Virgil, Segoe UI Emoji" font-size="20px" fill="#000000" text-anchor="middle" style="white-space: pre;" direction="ltr" dominant-baseline="text-before-edge">trigger</text></g><g stroke-linecap="round" transform="translate(695.441609708153 10) rotate(0 112.17973204994132 93.47258834020704)"><path d="M32 0 M32 0 C70.44 -1.19, 111.64 -2.43, 192.36 0 M32 0 C65.89 -0.35, 99.75 -1.84, 192.36 0 M192.36 0 C215.63 -0.56, 223.59 8.99, 224.36 32 M192.36 0 C214.21 1.01, 224.92 10.88, 224.36 32 M224.36 32 C224.64 59.06, 225.64 84.47, 224.36 154.95 M224.36 32 C223.38 71.35, 223.8 109.64, 224.36 154.95 M224.36 154.95 C223.93 174.58, 215.09 187.48, 192.36 186.95 M224.36 154.95 C225.92 174.32, 214.68 186.24, 192.36 186.95 M192.36 186.95 C129.15 185.88, 66.57 188.95, 32 186.95 M192.36 186.95 C154.91 186.4, 120.06 187.56, 32 186.95 M32 186.95 C11.68 185.7, -0.59 174.86, 0 154.95 M32 186.95 C10.48 186, 1.21 174.21, 0 154.95 M0 154.95 C-1.75 122.32, -1.32 95.5, 0 32 M0 154.95 C0.88 113.6, 0.91 69.95, 0 32 M0 32 C0.5 8.76, 10.58 1.03, 32 0 M0 32 C-1.7 12.71, 9.88 -1.21, 32 0" stroke="#000000" stroke-width="1" fill="none"></path></g><g transform="translate(715.5314293435431 65.97258834020704) rotate(0 92.08991241455078 37.5)"><text x="92.08991241455078" y="0" font-family="Virgil, Segoe UI Emoji" font-size="20px" fill="#000000" text-anchor="middle" style="white-space: pre;" direction="ltr" dominant-baseline="text-before-edge">Cloud provider </text><text x="92.08991241455078" y="25" font-family="Virgil, Segoe UI Emoji" font-size="20px" fill="#000000" text-anchor="middle" style="white-space: pre;" direction="ltr" dominant-baseline="text-before-edge">executes function </text><text x="92.08991241455078" y="50" font-family="Virgil, Segoe UI Emoji" font-size="20px" fill="#000000" text-anchor="middle" style="white-space: pre;" direction="ltr" dominant-baseline="text-before-edge">triggered</text></g><g stroke-linecap="round"><g transform="translate(234.7605410925771 106.14062492598163) rotate(0 66.98895006169914 -0.7640082980157672)"><path d="M1.03 -0.36 C1.94 -0.65, -16.93 -1.03, 6.12 -1.13 C29.18 -1.23, 117.05 -1.13, 139.36 -0.97 M0.11 -1.59 C1.33 -1.84, -14.73 -0.46, 8.36 -0.18 C31.46 0.1, 116.63 -0.13, 138.67 0.09" stroke="#000000" stroke-width="1" fill="none"></path></g><g transform="translate(234.7605410925771 106.14062492598163) rotate(0 66.98895006169914 -0.7640082980157672)"><path d="M109.86 8.76 C118.62 6.62, 129.8 4, 139.22 -0.61 M111.4 10.58 C119.28 6.5, 127.2 3.73, 138.24 0" stroke="#000000" stroke-width="1" fill="none"></path></g><g transform="translate(234.7605410925771 106.14062492598163) rotate(0 66.98895006169914 -0.7640082980157672)"><path d="M109.92 -11.76 C118.78 -6.55, 129.92 -1.82, 139.22 -0.61 M111.46 -9.94 C119.47 -7.55, 127.37 -3.85, 138.24 0" stroke="#000000" stroke-width="1" fill="none"></path></g></g><mask></mask><g stroke-linecap="round"><g transform="translate(600.1339826320182 104.52375250395534) rotate(0 46.51090249819845 0.28641388238267496)"><path d="M-1.04 0.11 C14.77 0.18, 78.47 1.42, 94.07 1.45 M0.61 -0.88 C16.4 -0.67, 77.74 -0.83, 93.45 -0.48" stroke="#000000" stroke-width="1" fill="none"></path></g><g transform="translate(600.1339826320182 104.52375250395534) rotate(0 46.51090249819845 0.28641388238267496)"><path d="M65.36 10.61 C72.19 5.95, 76.79 3.34, 94.84 -0.27 M64.33 10 C75.16 6.42, 84.47 2.96, 92.51 0.21" stroke="#000000" stroke-width="1" fill="none"></path></g><g transform="translate(600.1339826320182 104.52375250395534) rotate(0 46.51090249819845 0.28641388238267496)"><path d="M65.53 -9.91 C72.5 -9.86, 77.06 -7.75, 94.84 -0.27 M64.5 -10.53 C75.39 -7.34, 84.66 -4.04, 92.51 0.21" stroke="#000000" stroke-width="1" fill="none"></path></g></g><mask></mask></svg>